<svg width="36" height="23" viewBox="0 0 36 23" fill="none" xmlns="http://www.w3.org/2000/svg">
<path fill-rule="evenodd" clip-rule="evenodd" d="M0.78046 11.0332C0.785112 10.7017 0.921257 10.3857 1.15894 10.1546C1.39663 9.92346 1.71639 9.79623 2.04788 9.80089L31.5275 10.2146L23.7711 2.24C23.5397 2.00201 23.4123 1.68185 23.417 1.34994C23.4217 1.01804 23.558 0.701575 23.796 0.470176C24.034 0.238777 24.3541 0.111395 24.686 0.116053C25.0179 0.120711 25.3344 0.257029 25.5658 0.495016L35.4245 10.6344C35.5392 10.7521 35.6296 10.8913 35.6905 11.0441C35.7514 11.1968 35.7816 11.36 35.7792 11.5244C35.7769 11.6888 35.7422 11.8512 35.6771 12.0021C35.6119 12.1531 35.5177 12.2897 35.3996 12.4042L25.2603 22.2629C25.0223 22.4943 24.7021 22.6217 24.3702 22.617C24.0383 22.6123 23.7219 22.476 23.4905 22.238C23.2591 22 23.1317 21.6799 23.1363 21.348C23.141 21.0161 23.2773 20.6996 23.5153 20.4682L31.4924 12.7144L2.01279 12.3006C1.68131 12.296 1.36524 12.1598 1.13414 11.9222C0.903029 11.6845 0.775807 11.3647 0.78046 11.0332Z" fill="black"/>
</svg>
