<svg width="45" height="47" viewBox="0 0 45 47" fill="none" xmlns="http://www.w3.org/2000/svg">
<path d="M36.5625 21.9386L36.2559 21.7586C36.2325 21.745 33.8902 20.3552 33.308 18.6686L33.1781 18.295L32.9381 18.6086C32.9306 18.6184 32.5978 19.03 31.6664 19.5128C30.9769 15.588 28.6313 10.9023 25.5487 8.90453C26.43 8.97578 27.3141 8.90266 28.1672 8.59234C28.6809 8.40578 28.4592 7.56859 27.9408 7.75797C27.2414 8.0125 26.5406 8.08187 25.8412 8.04625C27.5583 6.47266 28.9064 4.06094 28.9064 2.2975C28.9064 1.87375 28.9064 1.08484 28.2783 1.08484C28.0261 1.08484 27.8222 1.24234 27.5405 1.45984C27.1083 1.79312 26.4558 2.2975 25.4972 2.2975C25.132 2.2975 24.4636 1.91219 23.9264 1.60281C23.2772 1.22922 22.8623 1 22.5136 1C21.9361 1 21.0872 1.46687 20.3381 1.87891C20.0334 2.04625 19.6167 2.27594 19.5305 2.29797C18.4448 2.29797 17.8144 1.79734 17.3962 1.46594C17.1525 1.27187 16.9758 1.13125 16.74 1.13125C16.1222 1.13125 16.1222 1.87234 16.1222 2.73062C16.1222 4.38719 17.3841 6.57391 19.0364 8.04344C17.9953 8.11797 16.9688 8.4325 16.2473 9.13141C15.8489 9.51672 16.4527 10.128 16.8497 9.74359C17.4492 9.16234 18.2353 8.91344 19.0763 8.86516C19.1002 8.95094 19.1292 9.03531 19.1648 9.11828C15.6417 11.65 13.1391 17.6617 13.1391 21.7202C13.1391 22.1205 13.17 22.4828 13.2178 22.8241C12.3094 22.4205 11.978 22.0666 11.9714 22.0586L11.7295 21.7797L11.6105 22.1313C11.0841 23.68 8.79562 25.0234 8.77266 25.037L8.4375 25.2316L8.77828 25.4158C8.89781 25.4805 9.01641 25.5372 9.13594 25.5986L8.92031 25.7481L9.03422 27.1731L17.9653 29.125L21.3516 26.9589C21.6933 26.9608 22.0392 26.9617 22.3912 26.9617L26.3494 29.125L35.2973 26.3125V24.8083L35.0606 24.6663C35.1788 24.5912 35.2969 24.5148 35.4145 24.4361L35.7281 24.2266L35.6592 24.1928L36.0581 24.0836L36.1256 22.5198L35.895 22.3563C36.0178 22.2827 36.1402 22.2077 36.263 22.1298L36.5625 21.9386ZM16.9748 2.73062C16.9748 2.5225 16.9777 2.36031 16.9819 2.23422C17.0536 2.29047 17.137 2.35188 17.2261 2.41516C17.4994 3.06953 18.0164 4.01172 18.893 4.60516C19.958 5.32703 19.8164 4.49734 20.3845 3.73984C20.9527 2.98281 21.337 2.58625 22.2886 4.53344C22.7034 5.38234 23.3948 3.01 24.052 2.66359C24.2259 2.75828 24.3994 2.84641 24.5695 2.92141C25.748 4.83766 26.2941 4.24 27.3408 2.64719C27.6286 2.47844 27.8648 2.2975 28.0528 2.15266C28.0538 2.19625 28.0547 2.24453 28.0547 2.29844C28.0547 3.80312 26.8252 5.96125 25.3195 7.36891C25.2484 7.18825 25.1466 7.02125 25.0186 6.87531C24.4106 6.18672 23.4605 6.95031 23.01 7.45141C22.2108 7.19453 20.9086 6.48719 20.0602 6.89219C19.8489 6.99021 19.6548 7.12175 19.4855 7.28172C18.098 6.01703 16.9748 4.19125 16.9748 2.73062ZM24.5705 7.87469C24.3603 7.83012 24.1513 7.78011 23.9438 7.72469C24.2053 7.49922 24.4453 7.42047 24.5461 7.75563C24.5569 7.79219 24.5634 7.83391 24.5705 7.87469ZM21.008 8.16578C20.8528 8.13625 20.6934 8.10953 20.5294 8.08844C20.405 8.01046 20.2832 7.92839 20.1642 7.84234C20.5927 7.555 21.3314 7.70781 22.0373 7.94734C21.6891 7.9825 21.3455 8.05844 21.008 8.16578ZM21.2208 9.40328C20.9583 9.46891 20.6723 9.44266 20.4253 9.34422C20.5256 9.29125 20.6269 9.24531 20.7281 9.19891C20.8922 9.27812 21.0562 9.34422 21.2208 9.40328ZM12.5503 26.4902C11.4323 26.1664 10.3474 25.7374 9.31031 25.2091C9.94641 24.7909 11.332 23.7798 11.8955 22.5648C12.2817 22.8681 13.1733 23.4212 14.9095 23.8459C14.88 23.8937 14.8439 23.9448 14.8092 23.995C13.327 23.6069 12.4842 23.1161 12.4706 23.1077L12.2663 22.9858L12.1683 23.2047C12.0394 23.4916 11.737 23.5347 11.5688 23.5347C11.5219 23.5347 11.4905 23.5314 11.4862 23.5309L11.3189 23.5066L11.258 23.6669C11.1333 23.9941 10.6214 24.4216 10.4339 24.5589L10.1208 24.7886L10.4789 24.9353C10.612 24.9897 10.6481 25.0398 10.65 25.053C10.6547 25.0853 10.598 25.1706 10.5375 25.2198L10.2647 25.4397L10.582 25.5864C11.2322 25.8864 11.9686 26.1348 12.705 26.3397C12.6464 26.3973 12.5958 26.4466 12.5503 26.4902ZM16.3303 24.7436C16.9856 24.8355 17.7117 24.8936 18.5048 24.8936H18.5053C18.6703 24.8936 18.8377 24.8908 19.0083 24.8856C19.0196 24.921 19.0359 24.9546 19.0566 24.9855C19.0983 25.0487 19.1545 25.1012 19.2258 25.142L18.0295 26.1644C18.0067 26.1634 17.9839 26.1629 17.9611 26.163C17.4281 26.163 17.0306 26.3589 16.8398 26.7077C16.117 26.6155 15.3975 26.4987 14.6827 26.3575C15.2573 25.8461 15.8072 25.3076 16.3303 24.7436ZM11.0105 25.3047C11.0573 25.2161 11.0878 25.1087 11.0714 24.9916C11.0558 24.8858 11.0051 24.7884 10.9275 24.715C11.138 24.5345 11.4281 24.2561 11.5875 23.9678C11.9498 23.9627 12.2489 23.8253 12.4373 23.5825C12.7547 23.7484 13.4695 24.0836 14.5256 24.3742C14.0939 24.9156 13.5122 25.5297 13.0598 25.9862C12.3548 25.7997 11.6447 25.5747 11.0105 25.3047ZM17.6906 27.2777L17.5945 27.2781C17.1909 27.2781 15.8536 27.2453 14.0869 26.8773C14.1487 26.8248 14.213 26.7709 14.2725 26.7194C15.7059 27.0189 16.8619 27.1473 16.9486 27.1572L17.1202 27.1755L17.1731 27.0091C17.2889 26.65 17.7159 26.597 17.9606 26.597C18.0277 26.597 18.0722 26.6012 18.0773 26.6017L18.1683 26.6116L20.2463 24.8359L19.6908 24.8177C19.5052 24.8111 19.4269 24.7694 19.4077 24.7408L19.5253 24.4328L19.2 24.4464C18.9628 24.4567 18.7312 24.4619 18.5048 24.4619H18.5044C17.85 24.4619 17.243 24.4187 16.6819 24.3508L16.8122 24.197C17.9447 24.3484 19.3008 24.4417 20.9381 24.43C20.5472 24.9784 19.5722 26.1442 17.6906 27.2777ZM22.3894 25.2409V26.0964C22.1227 26.0964 21.863 26.0955 21.6089 26.0936L21.5325 25.1308L20.8978 25.1823C21.3253 24.677 21.5077 24.34 21.5241 24.3095L21.6961 23.9842L21.3328 23.9908C17.8556 24.0545 15.5878 23.6402 14.1562 23.1798C14.0517 22.757 13.9913 22.2789 13.9913 21.7206C13.9913 17.913 16.4245 12.1577 19.6552 9.82516C20.2275 10.3787 21.0956 10.6211 21.9206 10.0825C22.1016 9.96437 22.2591 9.80969 22.4067 9.64516C22.4419 9.64609 22.478 9.65406 22.5136 9.65406C22.6317 9.65406 22.7517 9.64422 22.8713 9.62922C23.0227 9.68969 23.1708 9.75063 23.3081 9.81109C23.9658 10.1008 24.5273 9.92078 24.9108 9.52141C27.87 11.312 30.2409 16.0487 30.8648 19.8775C29.512 20.4184 27.3661 20.9463 24.0727 21.0391C24.7223 20.6678 25.2098 20.0434 25.0345 19.2231C24.8503 18.3559 24.1256 18.1122 23.3752 18.0723C23.3733 17.665 23.3733 17.2586 23.3761 16.8513C23.6062 16.953 23.827 17.0702 24.0277 17.1953C24.382 17.418 24.7027 16.8409 24.3506 16.6183C24.0454 16.4264 23.7196 16.2693 23.3794 16.15C23.3841 15.6784 23.3864 15.2078 23.3864 14.7372C23.3869 14.3059 22.7461 14.3059 22.7461 14.7372C22.7461 15.1511 22.7433 15.5645 22.7395 15.9775C22.3985 15.9181 22.0502 15.9122 21.7073 15.9602C21.6516 15.6499 21.584 15.3418 21.5048 15.0367C21.3989 14.6214 20.7802 14.7972 20.8875 15.2139C20.9662 15.5134 21.0305 15.8116 21.0834 16.1139C21.0563 16.1242 21.0267 16.1294 21 16.1416C20.1319 16.4852 19.6022 17.3612 20.2373 18.1783C20.5331 18.5589 20.9198 18.7127 21.3431 18.7638C21.3661 19.3277 21.3806 19.892 21.397 20.4555C21.1134 20.2712 20.8552 20.035 20.6213 19.7852C20.3316 19.4795 19.8792 19.9516 20.1684 20.2567C20.5617 20.6753 20.9747 20.9917 21.4223 21.1942C21.4425 21.6756 21.4711 22.1584 21.518 22.6375C21.5592 23.0627 22.2005 23.065 22.1587 22.6375C22.1192 22.2231 22.09 21.8078 22.0711 21.392C22.3148 21.4342 22.5708 21.445 22.8427 21.4192C22.8731 21.8627 22.9087 22.3061 22.9594 22.7495C22.9884 23.0036 23.2313 23.1034 23.4103 23.0519L23.3705 23.9725C23.0883 23.9978 22.8005 24.0212 22.5005 24.0409L22.1433 24.0644L22.3336 24.3719C22.3528 24.4028 22.5689 24.7445 23.0512 25.2419H22.3894V25.2409ZM34.0556 22.1556C33.4664 22.4327 32.7211 22.6867 31.9617 22.9084C31.4948 22.4261 30.8977 21.7825 30.4519 21.2116C31.4452 20.9106 32.0011 20.6003 32.2519 20.433C32.4502 20.6078 32.7127 20.6987 33.0234 20.6983C33.1266 20.6983 33.218 20.6884 33.2883 20.6772C33.5133 20.9688 33.8761 21.3053 34.103 21.5064C33.9956 21.6166 33.9436 21.7384 33.9478 21.8702C33.9516 21.9827 33.9966 22.0783 34.0556 22.1556ZM30.7017 23.6959C30.7973 23.7803 30.8962 23.8666 30.997 23.9537C29.0967 24.4577 27.6825 24.5125 27.3745 24.5177C25.4067 23.3172 24.3867 22.0469 23.9934 21.475C25.6402 21.4338 27.0014 21.2847 28.1367 21.0794C28.1829 21.1361 28.2296 21.1923 28.2769 21.2481C27.3644 21.3902 26.4447 21.4815 25.522 21.5214L25.1437 21.5373L25.3519 21.8556C25.3514 21.8561 25.3092 21.9348 25.0298 21.9892L24.5756 22.0778L26.8088 23.8858L26.9128 23.8577C26.9152 23.8572 27.112 23.8042 27.3502 23.8042C27.6938 23.8042 27.9286 23.9087 28.0467 24.1131L28.1217 24.2425L28.2675 24.2167C29.084 24.0679 29.8958 23.8942 30.7017 23.6959ZM24.0938 22.3183L23.5603 22.2892C23.5355 22.023 23.5106 21.7567 23.4919 21.4905C23.5856 21.6461 23.7778 21.9386 24.0938 22.3183ZM23.4338 20.6022C23.403 19.9712 23.3844 19.3397 23.378 18.708C23.4548 18.7108 23.5308 18.7178 23.603 18.7281C24.4317 18.8538 24.6483 19.7753 24.0014 20.2938C23.8327 20.4273 23.6381 20.5253 23.4338 20.6022ZM28.327 23.7672C28.117 23.508 27.7828 23.372 27.3506 23.372C27.1702 23.372 27.0112 23.3964 26.9109 23.4161L25.507 22.2784C25.6238 22.2114 25.7025 22.1266 25.7456 22.0225C25.7562 21.9966 25.7644 21.9698 25.77 21.9423C26.8828 21.8814 27.8203 21.7703 28.613 21.6344C28.9973 22.0633 29.5622 22.6548 30.3113 23.3425C29.3911 23.5614 28.6238 23.7114 28.327 23.7672ZM22.7367 18.7248C22.7456 19.4041 22.7625 20.0852 22.7986 20.7639C22.7381 20.7733 22.6786 20.785 22.6191 20.7911C22.4175 20.8141 22.2262 20.7972 22.0444 20.7513C22.0214 20.095 22.0064 19.4373 21.9816 18.7806C22.2337 18.7689 22.4892 18.7441 22.7367 18.7248ZM21.9492 18.1319C21.9199 17.6168 21.8715 17.103 21.8039 16.5916C22.1146 16.5489 22.4306 16.5649 22.7353 16.6389C22.732 17.1181 22.7312 17.5973 22.733 18.0766C22.5272 18.0878 22.3317 18.1075 22.1597 18.123C22.0897 18.1284 22.0195 18.1314 21.9492 18.1319ZM21.3061 18.0498C21.2662 18.0391 21.2269 18.0306 21.1861 18.017C20.9985 17.9535 20.8287 17.8463 20.6906 17.7044C20.2903 17.3308 20.8397 16.9642 21.1861 16.7903C21.2405 17.2075 21.278 17.6284 21.3061 18.0498ZM26.4797 27.1745C24.4448 26.1348 23.3531 24.9794 22.9195 24.4441C23.2312 24.4206 23.5261 24.3925 23.8181 24.363L27.1547 26.5286L34.4719 24.5186C30.6984 26.793 26.9705 27.1394 26.4797 27.1745ZM32.5228 23.4761C32.4628 23.4161 32.3911 23.3448 32.3062 23.2591C33.1388 23.0069 33.9441 22.7144 34.5445 22.3928L34.9097 22.1964L34.5394 22.008C34.4564 21.9653 34.3753 21.887 34.3739 21.8575C34.3748 21.8462 34.4077 21.7862 34.5497 21.7047L34.8206 21.5491L34.5797 21.3484C34.5722 21.3423 33.8208 20.7184 33.5569 20.3167L33.4697 20.1855L33.3202 20.2291C33.3188 20.2291 33.1903 20.2661 33.0234 20.2661C32.7656 20.2666 32.5725 20.1822 32.4487 20.0163L32.3119 19.8348L32.1403 19.9825C32.1314 19.99 31.6003 20.4255 30.1758 20.837C30.1289 20.7695 30.0837 20.7007 30.0403 20.6308C31.7677 20.1072 32.6503 19.4734 33.0328 19.1266C33.6469 20.455 35.1089 21.5252 35.7436 21.9447C34.724 22.5617 33.645 23.0747 32.5228 23.4761Z" fill="black"/>
<path d="M22.832 29.1836C22.3647 29.0565 21.8374 29.1432 21.6527 29.3753C21.4694 29.6082 21.7009 29.9017 22.1678 30.0297C22.6356 30.1567 23.1625 30.0695 23.3472 29.837C23.5305 29.604 23.2999 29.3115 22.832 29.1836Z" fill="black"/>
<path d="M22.5 31.2016C22.951 31.2016 23.3166 30.9523 23.3166 30.6448C23.3166 30.3372 22.951 30.0879 22.5 30.0879C22.049 30.0879 21.6834 30.3372 21.6834 30.6448C21.6834 30.9523 22.049 31.2016 22.5 31.2016Z" fill="black"/>
</svg>
