<svg width="30" height="30" viewBox="0 0 30 30" fill="none" xmlns="http://www.w3.org/2000/svg">
<path d="M13 14.59L10.41 12L9 13.41L13 17.41L21 9.41L19.59 8L13 14.59Z" fill="black"/>
<path d="M15 30L7.28 26.4718C5.07917 25.4682 3.23872 23.9698 1.95616 22.1376C0.6736 20.3053 -0.00264133 18.2082 7.75322e-06 16.0714V2.14286C0.000669599 1.57471 0.264274 1.03 0.732972 0.628255C1.20167 0.226514 1.83717 0.000567296 2.50001 0H27.5C28.1628 0.000567296 28.7983 0.226514 29.267 0.628255C29.7357 1.03 29.9993 1.57471 30 2.14286V16.0714C30.0026 18.2082 29.3264 20.3053 28.0438 22.1376C26.7613 23.9698 24.9208 25.4682 22.72 26.4718L15 30ZM2.50001 2.14286V16.0714C2.49793 17.8198 3.05138 19.5356 4.10096 21.0348C5.15053 22.5339 6.6566 23.7598 8.4575 24.5807L15 27.5711L21.5425 24.5818C23.3436 23.7607 24.8498 22.5347 25.8994 21.0354C26.9489 19.536 27.5023 17.82 27.5 16.0714V2.14286H2.50001Z" fill="black"/>
</svg>
