<svg width="30" height="30" viewBox="0 0 30 30" fill="none" xmlns="http://www.w3.org/2000/svg">
<g clip-path="url(#clip0_86_4)">
<path d="M6.8182 29.8523V14.4777L3.22348 10.1156L0 7.69492V27.1391C0 28.6404 0.916992 29.8523 2.04551 29.8523H6.8182Z" fill="#4285F4"/>
<path d="M23.1816 29.8523H27.9543C29.0863 29.8523 29.9998 28.6359 29.9998 27.1391V7.69508L26.3488 10.4677L23.1816 14.4777V29.8523Z" fill="#34A853"/>
<path d="M6.81824 14.4777L6.3291 8.47041L6.81824 2.72083L15 10.8603L23.1818 2.72083L23.729 8.16L23.1818 14.4777L15 22.6172L6.81824 14.4777Z" fill="#EA4335"/>
<path d="M23.1816 2.72083V14.4777L29.9998 7.69492V4.07736C29.9998 0.722174 27.1123 -1.19052 25.0909 0.821656L23.1816 2.72083Z" fill="#FBBC04"/>
<path d="M0 7.69479L3.13582 10.8145L6.8182 14.4776V2.7207L4.90898 0.821529C2.88398 -1.1908 0 0.722047 0 4.07707V7.69464V7.69479Z" fill="#C5221F"/>
</g>
<defs>
<clipPath id="clip0_86_4">
<rect width="30" height="30" fill="white"/>
</clipPath>
</defs>
</svg>
