<svg width="23" height="21" viewBox="0 0 23 21" fill="none" xmlns="http://www.w3.org/2000/svg">
<path d="M16.7973 1.18C17.4633 1.17951 18.1223 1.31496 18.7357 1.57813C19.3491 1.84128 19.9042 2.22668 20.3689 2.71116C21.3221 3.70119 21.8546 5.03268 21.8546 6.4176C21.8546 7.80271 21.322 9.13437 20.3685 10.1244L20.368 10.1249L11.8597 18.9365L11.5 19.309L11.1403 18.9365L2.63196 10.1249L2.6315 10.1244C1.678 9.13437 1.14541 7.80271 1.14541 6.4176C1.14541 5.0325 1.678 3.70083 2.6315 2.71076C3.0963 2.22679 3.65131 1.84172 4.26447 1.57861C4.8779 1.31538 5.53687 1.17964 6.20281 1.17964C6.86875 1.17964 7.52772 1.31538 8.14115 1.57861C8.75454 1.84182 9.30975 2.22709 9.77465 2.71132L9.77555 2.71225L11.5007 4.51841L13.2143 2.73105C13.2148 2.7306 13.2152 2.73015 13.2156 2.7297C13.6789 2.23965 14.2346 1.84943 14.8499 1.58293C15.4656 1.31625 16.128 1.1791 16.7973 1.18ZM16.7973 1.18C16.7975 1.18 16.7977 1.18 16.7979 1.18L16.7972 1.68L16.7968 1.18C16.797 1.18 16.7971 1.18 16.7973 1.18ZM16.7971 0.500002L16.7968 0.500002C16.0483 0.499353 15.3069 0.651542 14.616 0.947958C13.9251 1.24439 13.2983 1.67925 12.7725 2.22762L12.7707 2.22955L11.8591 3.17034L11.5 3.54092L11.1409 3.17034L10.2293 2.22954L10.228 2.22817C9.7015 1.68066 9.07434 1.24645 8.38339 0.950283L8.58038 0.490722L8.38339 0.950283C7.69247 0.654126 6.95124 0.501762 6.20281 0.501762C5.45438 0.501762 4.71315 0.654126 4.02223 0.950283C3.33137 1.24641 2.70429 1.68054 2.17784 2.22795L16.7971 0.500002ZM16.7971 0.500002C17.5456 0.500213 18.2869 0.65283 18.9778 0.949268C19.6687 1.2457 20.2958 1.68018 20.8222 2.22795C21.8963 3.34633 22.5 4.85367 22.5 6.426C22.5 7.99814 21.8964 9.5053 20.8225 10.6236C20.8224 10.6238 20.8223 10.6239 20.8222 10.6241L11.5 20.2801L2.17784 10.6241C2.1777 10.6239 2.17755 10.6238 2.17741 10.6236C1.10355 9.50526 0.5 7.99812 0.5 6.426C0.5 4.85377 1.10363 3.34653 2.17763 2.22817L16.7971 0.500002Z" fill="#C9F8DD" stroke="#08C552"/>
</svg>
