<svg width="50" height="50" viewBox="0 0 50 50" fill="none" xmlns="http://www.w3.org/2000/svg">
<path d="M9.08994 49.7515V46.4422C9.08994 45.1734 8.48955 44.3462 7.46045 44.3462C6.946 44.3462 6.38857 44.5668 6.00264 45.2839C5.70264 44.6771 5.27393 44.3462 4.63076 44.3462C4.20186 44.3462 3.77334 44.5116 3.43018 45.1183V44.4565H2.52979V49.7515H3.43018V46.8281C3.43018 45.8907 3.81611 45.4492 4.4165 45.4492C5.0165 45.4492 5.31689 45.9457 5.31689 46.8281V49.7515H6.21729V46.8281C6.21729 45.8907 6.6458 45.4492 7.20322 45.4492C7.80361 45.4492 8.10361 45.9457 8.10361 46.8281V49.7515H9.08994ZM22.4241 44.4565H20.9665V42.857H20.0661V44.4565H19.2515V45.5043H20.0659V47.9314C20.0659 49.145 20.4519 49.8618 21.481 49.8618C21.8669 49.8618 22.2954 49.6965 22.5958 49.4759L22.3384 48.4829C22.0812 48.7035 21.7812 48.7588 21.5667 48.7588C21.138 48.7588 20.9665 48.4279 20.9665 47.8761V45.5043H22.4241V44.4565ZM30.0562 44.346C29.5417 44.346 29.1987 44.6771 28.9843 45.1183V44.4565H28.0839V49.7515H28.9843V46.7731C28.9843 45.8907 29.2843 45.3942 29.8417 45.3942C30.0132 45.3942 30.2276 45.4495 30.3991 45.5045L30.6563 44.4015C30.4849 44.3462 30.2276 44.3462 30.0562 44.3462V44.346ZM18.5226 44.8977C18.0937 44.5116 17.4935 44.3462 16.8503 44.3462C15.8214 44.3462 15.1354 45.008 15.1354 46.056C15.1354 46.9387 15.6499 47.4349 16.5503 47.6005L16.979 47.6558C17.4507 47.7658 17.7079 47.9314 17.7079 48.2073C17.7079 48.5932 17.3649 48.8691 16.7646 48.8691C16.1644 48.8691 15.6927 48.5932 15.3925 48.3176L14.9638 49.2C15.4354 49.6412 16.0786 49.8618 16.7216 49.8618C17.9222 49.8618 18.6083 49.145 18.6083 48.152C18.6083 47.2143 18.0509 46.7178 17.1933 46.5525L16.7646 46.4972C16.3786 46.442 16.0786 46.3319 16.0786 46.001C16.0786 45.6148 16.3786 45.3942 16.8503 45.3942C17.3649 45.3942 17.8794 45.6698 18.1366 45.8354L18.5226 44.8977ZM42.4474 44.3462C41.9327 44.3462 41.5897 44.6771 41.3753 45.1183V44.4565H40.4749V49.7515H41.3753V46.7731C41.3753 45.8907 41.6755 45.3942 42.2327 45.3942C42.4044 45.3942 42.6188 45.4495 42.7903 45.5045L43.0476 44.4015C42.8761 44.3462 42.6189 44.3462 42.4474 44.3462ZM30.9565 47.104C30.9565 48.7035 31.814 49.8618 33.1433 49.8618C33.7435 49.8618 34.1722 49.6965 34.6009 49.2553L34.1722 48.3176C33.8292 48.6485 33.4862 48.8138 33.1003 48.8138C32.3714 48.8138 31.8569 48.152 31.8569 47.104C31.8569 46.1113 32.3714 45.4492 33.1003 45.3942C33.4862 45.3942 33.8292 45.5595 34.1722 45.8907L34.6009 44.953C34.1722 44.5116 33.7435 44.3462 33.1433 44.3462C31.814 44.3462 30.9565 45.5045 30.9565 47.104ZM39.2745 47.104V44.4565H38.3741V45.1183C38.0739 44.6221 37.6452 44.3462 37.0878 44.3462C35.9302 44.3462 35.0298 45.5045 35.0298 47.104C35.0298 48.7035 35.9302 49.8618 37.0878 49.8618C37.688 49.8618 38.1169 49.5862 38.3741 49.0897V49.7515H39.2745V47.104ZM35.9729 47.104C35.9729 46.1663 36.4446 45.3942 37.2163 45.3942C37.9452 45.3942 38.4599 46.1113 38.4599 47.104C38.4599 48.0417 37.9452 48.8138 37.2163 48.8138C36.4446 48.7585 35.9729 48.0417 35.9729 47.104ZM25.2112 44.3462C24.0106 44.3462 23.153 45.4492 23.153 47.104C23.153 48.7588 24.0105 49.8618 25.254 49.8618C25.8542 49.8618 26.4546 49.6412 26.9263 49.145L26.4974 48.3176C26.1544 48.6485 25.7257 48.8691 25.297 48.8691C24.7396 48.8691 24.1821 48.5382 24.0534 47.6002H27.0978V47.1593C27.1407 45.4492 26.3688 44.3462 25.211 44.3462H25.2112ZM25.2112 45.3389C25.7685 45.3389 26.1546 45.7804 26.2401 46.6078H24.0964C24.1821 45.8907 24.5681 45.3389 25.2112 45.3389ZM47.5495 47.104V42.3605H46.6491V45.1183C46.3489 44.6221 45.9202 44.3462 45.3628 44.3462C44.2052 44.3462 43.3048 45.5045 43.3048 47.104C43.3048 48.7035 44.2052 49.8618 45.3628 49.8618C45.9632 49.8618 46.3919 49.5862 46.6491 49.0897V49.7515H47.5495V47.104ZM44.2481 47.104C44.2481 46.1663 44.7196 45.3942 45.4915 45.3942C46.2204 45.3942 46.7349 46.1113 46.7349 47.104C46.7349 48.0417 46.2204 48.8138 45.4915 48.8138C44.7196 48.7585 44.2481 48.0417 44.2481 47.104ZM14.1491 47.104V44.4565H13.2487V45.1183C12.9485 44.6221 12.5198 44.3462 11.9624 44.3462C10.8048 44.3462 9.90439 45.5045 9.90439 47.104C9.90439 48.7035 10.8048 49.8618 11.9624 49.8618C12.5628 49.8618 12.9915 49.5862 13.2487 49.0897V49.7515H14.1491V47.104ZM10.8048 47.104C10.8048 46.1663 11.2765 45.3942 12.0481 45.3942C12.7771 45.3942 13.2917 46.1113 13.2917 47.104C13.2917 48.0417 12.7771 48.8138 12.0481 48.8138C11.2765 48.7585 10.8048 48.0417 10.8048 47.104Z" fill="black"/>
<path d="M18.2222 4.24699H31.728V35.4658H18.2222V4.24699Z" fill="#FF5F00"/>
<path d="M19.0799 19.8565C19.0799 13.5136 21.3951 7.88744 24.9537 4.24698C22.3385 1.5995 19.0371 0 15.4355 0C6.90293 0 0 8.88015 0 19.8565C0 30.8327 6.90293 39.7131 15.4354 39.7131C19.0369 39.7131 22.3383 38.1136 24.9537 35.4658C21.3951 31.8807 19.0799 26.1995 19.0799 19.8565Z" fill="#EB001B"/>
<path d="M49.9503 19.8565C49.9503 30.8327 43.0474 39.7131 34.5149 39.7131C30.9134 39.7131 27.612 38.1136 24.9966 35.4658C28.5981 31.8256 30.8706 26.1995 30.8706 19.8565C30.8706 13.5136 28.5552 7.88744 24.9966 4.24698C27.6118 1.5995 30.9134 0 34.5149 0C43.0474 0 49.9505 8.93543 49.9505 19.8565H49.9503Z" fill="#F79E1B"/>
<rect width="50" height="50" stroke="black"/>
</svg>
