<svg width="30" height="30" viewBox="0 0 30 30" fill="none" xmlns="http://www.w3.org/2000/svg">
<path d="M5.484 29.5961C5.26863 29.8016 5.0043 29.9354 4.72205 29.9818C4.4398 30.0282 4.15134 29.9853 3.89053 29.8581C3.62973 29.7309 3.4074 29.5247 3.24966 29.2637C3.09192 29.0026 3.00531 28.6976 3 28.3845V24.6922C2.20435 24.6922 1.44129 24.3453 0.87868 23.7279C0.316071 23.1105 0 22.2731 0 21.3999V9.87687C0 9.0037 0.316071 8.1663 0.87868 7.54887C1.44129 6.93145 2.20435 6.58458 3 6.58458H19.5C20.2956 6.58458 21.0587 6.93145 21.6213 7.54887C22.1839 8.1663 22.5 9.0037 22.5 9.87687V21.3999C22.5 22.2731 22.1839 23.1105 21.6213 23.7279C21.0587 24.3453 20.2956 24.6922 19.5 24.6922H12.0045L5.484 29.5961ZM6.75 24.5045C6.88668 24.5037 7.02091 24.4646 7.14 24.3909L10.6725 21.6946C10.9239 21.5027 11.2228 21.3999 11.529 21.3999H18C18.3978 21.3999 18.7794 21.2265 19.0607 20.9177C19.342 20.609 19.5 20.1903 19.5 19.7537V11.523C19.5 11.0864 19.342 10.6677 19.0607 10.359C18.7794 10.0503 18.3978 9.87687 18 9.87687H4.5C4.10218 9.87687 3.72064 10.0503 3.43934 10.359C3.15804 10.6677 3 11.0864 3 11.523V19.7537C3 20.6427 3.6435 21.3703 4.5 21.3999C5.115 21.4262 5.5605 21.5365 5.766 21.7719C5.95193 21.9855 5.96765 22.3411 5.99707 23.0062C5.99803 23.0279 5.999 23.05 6 23.0724C6.0045 23.1761 6.0045 23.3637 6 23.6814C6 23.8997 6.07902 24.1091 6.21967 24.2635C6.36032 24.4178 6.55109 24.5045 6.75 24.5045ZM24 16.4878C23.9952 16.6908 23.9952 16.8939 24 17.0969V22.623L24.516 23.0115C24.7314 23.217 24.9957 23.3508 25.2779 23.3972C25.5602 23.4437 25.8487 23.4007 26.1095 23.2735C26.3703 23.1463 26.5926 22.9401 26.7503 22.6791C26.9081 22.4181 26.9947 22.1131 27 21.7999V18.1076C27.7956 18.1076 28.5587 17.7607 29.1213 17.1433C29.6839 16.5259 30 15.6885 30 14.8153V3.29229C30 2.41912 29.6839 1.58171 29.1213 0.96429C28.5587 0.346865 27.7956 0 27 0H10.5C9.70435 0 8.94129 0.346865 8.37868 0.96429C7.81607 1.58171 7.5 2.41912 7.5 3.29229V4.93844H10.5C10.5 4.50185 10.658 4.08315 10.9393 3.77444C11.2206 3.46572 11.6022 3.29229 12 3.29229H25.5C25.8978 3.29229 26.2794 3.46572 26.5607 3.77444C26.842 4.08315 27 4.50185 27 4.93844V13.1692C27 14.0581 26.3565 14.7857 25.5 14.8153C24.885 14.8416 24.4395 14.9519 24.234 15.1873C24.0458 15.4035 24.0306 15.7651 24.0018 16.4457L24 16.4878Z" fill="black"/>
<path d="M5.484 29.5961C5.26863 29.8016 5.0043 29.9354 4.72205 29.9818C4.4398 30.0282 4.15134 29.9853 3.89053 29.8581C3.62973 29.7309 3.4074 29.5247 3.24966 29.2637C3.09192 29.0026 3.00531 28.6976 3 28.3845V24.6922C2.20435 24.6922 1.44129 24.3453 0.87868 23.7279C0.316071 23.1105 0 22.2731 0 21.3999V9.87687C0 9.0037 0.316071 8.1663 0.87868 7.54887C1.44129 6.93145 2.20435 6.58458 3 6.58458H19.5C20.2956 6.58458 21.0587 6.93145 21.6213 7.54887C22.1839 8.1663 22.5 9.0037 22.5 9.87687V21.3999C22.5 22.2731 22.1839 23.1105 21.6213 23.7279C21.0587 24.3453 20.2956 24.6922 19.5 24.6922H12.0045L5.484 29.5961ZM6.75 24.5045C6.88668 24.5037 7.02091 24.4646 7.14 24.3909L10.6725 21.6946C10.9239 21.5027 11.2228 21.3999 11.529 21.3999H18C18.3978 21.3999 18.7794 21.2265 19.0607 20.9177C19.342 20.609 19.5 20.1903 19.5 19.7537V11.523C19.5 11.0864 19.342 10.6677 19.0607 10.359C18.7794 10.0503 18.3978 9.87687 18 9.87687H4.5C4.10218 9.87687 3.72064 10.0503 3.43934 10.359C3.15804 10.6677 3 11.0864 3 11.523V19.7537C3 20.6427 3.6435 21.3703 4.5 21.3999C5.115 21.4262 5.5605 21.5365 5.766 21.7719C5.95193 21.9855 5.96765 22.3411 5.99707 23.0062C5.99803 23.0279 5.999 23.05 6 23.0724C6.0045 23.1761 6.0045 23.3637 6 23.6814C6 23.8997 6.07902 24.1091 6.21967 24.2635C6.36032 24.4178 6.55109 24.5045 6.75 24.5045ZM24 16.4878C23.9952 16.6908 23.9952 16.8939 24 17.0969V22.623L24.516 23.0115C24.7314 23.217 24.9957 23.3508 25.2779 23.3972C25.5602 23.4437 25.8487 23.4007 26.1095 23.2735C26.3703 23.1463 26.5926 22.9401 26.7503 22.6791C26.9081 22.4181 26.9947 22.1131 27 21.7999V18.1076C27.7956 18.1076 28.5587 17.7607 29.1213 17.1433C29.6839 16.5259 30 15.6885 30 14.8153V3.29229C30 2.41912 29.6839 1.58171 29.1213 0.96429C28.5587 0.346865 27.7956 0 27 0H10.5C9.70435 0 8.94129 0.346865 8.37868 0.96429C7.81607 1.58171 7.5 2.41912 7.5 3.29229V4.93844H10.5C10.5 4.50185 10.658 4.08315 10.9393 3.77444C11.2206 3.46572 11.6022 3.29229 12 3.29229H25.5C25.8978 3.29229 26.2794 3.46572 26.5607 3.77444C26.842 4.08315 27 4.50185 27 4.93844V13.1692C27 14.0581 26.3565 14.7857 25.5 14.8153C24.885 14.8416 24.4395 14.9519 24.234 15.1873C24.0458 15.4035 24.0306 15.7651 24.0018 16.4457L24 16.4878Z" stroke="black"/>
</svg>
