<svg width="32" height="32" viewBox="0 0 32 32" fill="none" xmlns="http://www.w3.org/2000/svg">
<g clip-path="url(#clip0_117_105)">
<path d="M15.0416 1.6107C11.3564 1.77862 7.88473 3.38794 5.37503 6.09173L5.19321 2.0542L3.32011 2.13855L3.65751 9.63096L11.1499 9.29355L11.0656 7.42045L6.51668 7.6253C7.5988 6.39072 8.91918 5.38748 10.3986 4.67581C11.878 3.96413 13.486 3.55868 15.126 3.4838C21.8311 3.18185 27.5322 8.39158 27.8341 15.0967C28.1361 21.8018 22.9263 27.5029 16.2212 27.8049C9.51611 28.1068 3.81503 22.8971 3.51308 16.192L1.63997 16.2763C1.76496 19.0519 2.71021 21.7281 4.35617 23.9665C6.00213 26.2049 8.27489 27.9049 10.887 28.8516C13.4992 29.7983 16.3334 29.9491 19.0313 29.285C21.7291 28.6209 24.1695 27.1718 26.0438 25.1207C27.918 23.0697 29.142 20.509 29.5609 17.7623C29.9798 15.0157 29.5748 12.2065 28.3972 9.69001C27.2195 7.17354 25.3221 5.06278 22.9448 3.62468C20.5675 2.18657 17.8172 1.4857 15.0416 1.6107Z" fill="black"/>
<path d="M14.3434 7.27007L14.7761 17.5764L22.2998 17.2376L22.2155 15.3645L16.5706 15.6187L16.2167 7.19146L14.3434 7.27007Z" fill="black"/>
</g>
<defs>
<clipPath id="clip0_117_105">
<rect width="30" height="30" fill="white" transform="translate(0 1.34961) rotate(-2.57847)"/>
</clipPath>
</defs>
</svg>
