<svg width="30" height="30" viewBox="0 0 30 30" fill="none" xmlns="http://www.w3.org/2000/svg">
<path d="M0 1.655C0.00274507 1.2173 0.16035 0.798362 0.438769 0.488696C0.717188 0.17903 1.09407 0.00349108 1.488 0H28.512C29.334 0 30 0.741667 30 1.655V28.345C29.9973 28.7827 29.8396 29.2016 29.5612 29.5113C29.2828 29.821 28.9059 29.9965 28.512 30H1.488C1.09322 29.9996 0.714745 29.825 0.435734 29.5147C0.156723 29.2043 -2.00183e-07 28.7836 0 28.345V1.655ZM3 3.33333V26.6667H27V3.33333H3ZM6 6.66667H15V16.6667H6V6.66667ZM9 10V13.3333H12V10H9ZM6 20H24V23.3333H6V20ZM18 6.66667H24V10H18V6.66667ZM18 13.3333H24V16.6667H18V13.3333Z" fill="black"/>
</svg>
