<svg width="30" height="30" viewBox="0 0 30 30" fill="none" xmlns="http://www.w3.org/2000/svg">
<path d="M13.0689 2.63914C12.1638 1.99119 11.0958 1.64286 10 1.64286C8.52974 1.64286 7.1273 2.26895 6.09894 3.37077C5.07166 4.47142 4.5 5.95729 4.5 7.5C4.5 8.65106 4.81842 9.7788 5.41839 10.7409C6.01854 11.7032 6.87506 12.4587 7.88376 12.9064C8.89298 13.3543 10.0057 13.4721 11.0797 13.2432C12.1533 13.0144 13.1344 12.4507 13.9011 11.6292C14.6674 10.8082 15.1858 9.76608 15.3955 8.63639C15.6052 7.50678 15.4979 6.33558 15.0858 5.26962C14.6736 4.20347 13.9735 3.28674 13.0689 2.63914ZM6.40206 1.67053C7.47038 0.905722 8.72242 0.5 10 0.5C11.7123 0.5 13.3621 1.2285 14.5842 2.53786C15.8074 3.84839 16.5 5.63278 16.5 7.5C16.5 8.89184 16.1146 10.2499 15.396 11.4022C14.6776 12.5542 13.66 13.4466 12.476 13.9721C11.2925 14.4973 9.99242 14.6341 8.73859 14.3669C7.48442 14.0996 6.32734 13.4388 5.41578 12.4621C4.50388 11.4851 3.8794 10.2363 3.6261 8.87191C3.37279 7.50748 3.50306 6.09354 3.99921 4.81017C4.49528 3.52698 5.33326 2.43569 6.40206 1.67053ZM19.5 29.5H18.5V24.6429C18.5 23.1002 17.9283 21.6143 16.9011 20.5136C15.8727 19.4118 14.4703 18.7857 13 18.7857H7C5.52974 18.7857 4.1273 19.4118 3.09894 20.5136C2.07166 21.6143 1.5 23.1002 1.5 24.6429V29.5H0.5V24.6429C0.5 22.7756 1.19262 20.9912 2.41578 19.6807C3.63785 18.3714 5.28766 17.6429 7 17.6429H13C14.7123 17.6429 16.3621 18.3714 17.5842 19.6807C18.8074 20.9912 19.5 22.7756 19.5 24.6429V29.5ZM20.5 2.64286H29.5V3.78571H20.5V2.64286ZM20.5 8H29.5V9.14286H20.5V8ZM20.5 13.3571H26.5V14.5H20.5V13.3571Z" fill="black" stroke="black"/>
</svg>
