<svg width="50" height="50" viewBox="0 0 50 50" fill="none" xmlns="http://www.w3.org/2000/svg">
<path d="M25.8588 15.9205C25.8303 22.8578 27.8633 26.7289 29.3947 29.0307C30.9682 31.3922 31.4967 32.9066 31.4904 35.0187C31.4787 38.2506 30.2354 39.6771 29.0719 39.7325C27.042 39.8295 25.8617 38.0422 24.9234 36.6904L24.1922 47.244C25.1336 48.5819 26.8768 49.7488 28.6844 49.8C32.9275 49.8 35.7035 43.3398 35.7186 33.3235C35.7352 20.6114 30.0178 19.9078 30.0568 14.2259C30.0703 12.503 30.6033 10.6645 31.7713 10.197C32.3494 9.96085 33.9453 9.78012 35.7547 12.35L36.4648 2.13916C35.4918 1.04639 34.2412 0 32.6842 0C28.6904 0 25.8814 6.54819 25.8588 15.9205ZM43.2887 0.87952C42.5139 0.87952 41.8609 2.27349 41.5695 4.41265L35.5084 49.05H39.7484L40.5922 41.8578H45.7734L46.2629 49.05H50L46.7389 0.87952H43.2887ZM43.8818 13.8922L45.1055 31.9807H41.7543L43.8818 13.8922ZM20.718 0.880123L17.3758 49.0494H21.4162L24.7568 0.878918H20.718V0.880123ZM14.7408 0.878918L10.5354 33.6663L8.83418 5.78856C8.63457 2.67651 7.84629 0.87952 6.9709 0.87952H0.0962891L0 2.27831C1.41133 3.22289 3.01484 4.74639 3.98633 6.37651C4.58086 7.37229 4.75039 8.24277 4.9457 10.609L8.16777 49.05H12.4375L18.9836 0.87952H14.7408" fill="url(#paint0_linear_71_237)"/>
<defs>
<linearGradient id="paint0_linear_71_237" x1="22.987" y1="50.799" x2="27.4032" y2="-0.00306259" gradientUnits="userSpaceOnUse">
<stop stop-color="#222357"/>
<stop offset="1" stop-color="#254AA5"/>
</linearGradient>
</defs>
</svg>
