<svg width="30" height="30" viewBox="0 0 30 30" fill="none" xmlns="http://www.w3.org/2000/svg">
<path d="M24.8906 18.0937H21.375V19.875H24.8906C25.3594 19.875 25.7812 20.25 25.7812 20.7656C25.7812 21.2812 25.4062 21.6562 24.8906 21.6562H2.95313C2.48438 21.6562 2.0625 22.0312 2.0625 22.5469C2.0625 23.0156 2.4375 23.4375 2.95313 23.4375H24.9375C26.3906 23.4375 27.5625 22.2656 27.5625 20.8125C27.5625 19.2656 26.3437 18.0937 24.8906 18.0937V18.0937ZM25.5469 12.0469L23.8125 11.9062C23.8125 11.8594 24.8906 5.4375 25.125 4.125C25.2656 3.375 25.5469 1.26562 28.2187 1.26562V3.04687C27.1406 3.04687 27 3.46875 26.9062 4.26563C26.625 5.57813 25.5469 11.9531 25.5469 12.0469Z" fill="#B2C1C0"/>
<path d="M25.6406 5.76562H1.87499C0.984367 5.76562 0.843742 6.60938 0.984367 7.07813L3.65624 18.9844C3.79687 19.4531 4.26562 19.8281 4.78124 19.8281H23.4375C23.9062 19.8281 24.375 19.4531 24.4687 18.9375L26.4375 6.60938C26.4844 6.1875 26.1094 5.76562 25.6406 5.76562V5.76562ZM3.23437 9.75L2.76562 7.96875C2.71874 7.73437 2.85937 7.54688 3.09374 7.54688H6.42187C6.65624 7.54688 6.89062 7.73437 6.89062 7.96875L7.07812 9.75C7.12499 9.98437 6.93749 10.1719 6.70312 10.1719H3.74999C3.51562 10.1719 3.28124 9.98437 3.23437 9.75ZM4.73437 14.1094C4.49999 14.1094 4.26562 13.9219 4.17187 13.6875L3.84374 12.3281C3.79687 12.0937 3.93749 11.9062 4.17187 11.9062H6.84374C7.07812 11.9062 7.31249 12.0937 7.31249 12.3281L7.45312 13.6406C7.49999 13.875 7.31249 14.0625 7.07812 14.0625C7.12499 14.1094 4.73437 14.1094 4.73437 14.1094V14.1094ZM7.54687 18.0937H5.71874C5.48437 18.0937 5.24999 17.9063 5.15624 17.6719L4.82812 16.3125C4.78124 16.0781 4.92187 15.8906 5.15624 15.8906H7.26562C7.49999 15.8906 7.73437 16.0781 7.73437 16.3125L7.87499 17.625C7.96874 17.8594 7.78124 18.0937 7.54687 18.0937ZM12.9375 17.625C12.9375 17.8594 12.75 18.0469 12.5156 18.0469H10.2187C9.98437 18.0469 9.74999 17.8594 9.74999 17.625L9.60937 16.3125C9.56249 16.0781 9.74999 15.8906 9.98437 15.8906H12.5156C12.75 15.8906 12.9375 16.0781 12.9375 16.3125V17.625ZM12.9375 13.6875C12.9375 13.9219 12.75 14.1094 12.5156 14.1094H9.79687C9.56249 14.1094 9.32812 13.9219 9.32812 13.6875L9.18749 12.375C9.14062 12.1406 9.32812 11.9531 9.56249 11.9531H12.5156C12.75 11.9531 12.9375 12.1406 12.9375 12.375V13.6875ZM12.9375 9.75C12.9375 9.98437 12.75 10.1719 12.5156 10.1719H9.37499C9.14062 10.1719 8.90624 9.98437 8.90624 9.75L8.67187 7.96875C8.62499 7.73437 8.81249 7.54688 9.04687 7.54688H12.4687C12.7031 7.54688 12.8906 7.73437 12.8906 7.96875C12.9375 7.96875 12.9375 9.75 12.9375 9.75ZM17.7187 17.625C17.6719 17.8594 17.4844 18.0469 17.25 18.0469H15.1875C14.9531 18.0469 14.7656 17.8594 14.7656 17.625V16.3125C14.7656 16.0781 14.9531 15.8906 15.1875 15.8906H17.4844C17.7187 15.8906 17.9062 16.0781 17.8594 16.3125L17.7187 17.625ZM18.1406 13.6875C18.0937 13.9219 17.9062 14.1094 17.6719 14.1094H15.1875C14.9531 14.1094 14.7656 13.9219 14.7656 13.6875V12.375C14.7656 12.1406 14.9531 11.9531 15.1875 11.9531H17.9062C18.1406 11.9531 18.3281 12.1406 18.2812 12.375L18.1406 13.6875ZM18.5625 9.75C18.5156 9.98437 18.3281 10.1719 18.0937 10.1719H15.1875C14.9531 10.1719 14.7656 9.98437 14.7656 9.75V7.96875C14.7656 7.73437 14.9531 7.54688 15.1875 7.54688H18.375C18.6094 7.54688 18.7969 7.73437 18.75 7.96875L18.5625 9.75V9.75ZM22.6406 17.625C22.5937 17.8594 22.3594 18.0469 22.125 18.0469H19.875C19.6406 18.0469 19.4531 17.8594 19.5 17.625L19.6406 16.3125C19.6875 16.0781 19.875 15.8906 20.1094 15.8906H22.5C22.7344 15.8906 22.9219 16.0781 22.875 16.3125L22.6406 17.625V17.625ZM23.25 13.6875C23.2031 13.9219 22.9687 14.1094 22.7344 14.1094H20.25C20.0156 14.1094 19.8281 13.9219 19.875 13.6875L20.0156 12.375C20.0625 12.1406 20.25 11.9531 20.4844 11.9531H23.0625C23.2969 11.9531 23.4844 12.1406 23.4375 12.375L23.25 13.6875ZM23.8594 9.75C23.8125 9.98437 23.5781 10.1719 23.3437 10.1719H20.6719C20.4375 10.1719 20.25 9.98437 20.2969 9.75L20.4844 7.96875C20.5312 7.73437 20.7187 7.54688 20.9531 7.54688H23.7187C23.9531 7.54688 24.1406 7.73437 24.0937 7.96875L23.8594 9.75" fill="black"/>
<path d="M5.76563 29.0625C7.21537 29.0625 8.39062 27.8872 8.39062 26.4375C8.39062 24.9878 7.21537 23.8125 5.76563 23.8125C4.31588 23.8125 3.14062 24.9878 3.14062 26.4375C3.14062 27.8872 4.31588 29.0625 5.76563 29.0625Z" fill="#62727A"/>
<path d="M5.76563 27.75C6.4905 27.75 7.07813 27.1624 7.07813 26.4375C7.07813 25.7126 6.4905 25.125 5.76563 25.125C5.04075 25.125 4.45312 25.7126 4.45312 26.4375C4.45312 27.1624 5.04075 27.75 5.76563 27.75Z" fill="white"/>
<path d="M21.6094 29.0625C23.0591 29.0625 24.2344 27.8872 24.2344 26.4375C24.2344 24.9878 23.0591 23.8125 21.6094 23.8125C20.1596 23.8125 18.9844 24.9878 18.9844 26.4375C18.9844 27.8872 20.1596 29.0625 21.6094 29.0625Z" fill="#62727A"/>
<path d="M22.9219 26.4375C22.9219 27.1875 22.3125 27.75 21.6094 27.75C20.8594 27.75 20.2969 27.1406 20.2969 26.4375C20.2969 25.6875 20.9062 25.125 21.6094 25.125C22.3125 25.125 22.9219 25.6875 22.9219 26.4375Z" fill="white"/>
<path d="M28.6406 0.9375H27.3281V3.5625H28.6406C28.875 3.5625 29.0625 3.375 29.0625 3.14062V1.35938C29.0625 1.125 28.875 0.9375 28.6406 0.9375Z" fill="#62727A"/>
<path d="M5.76562 22.9219C3.84375 22.9219 2.25 24.5156 2.25 26.4375H9.28125C9.28125 24.4688 7.73437 22.9219 5.76562 22.9219ZM21.6094 22.9219C19.6875 22.9219 18.0937 24.5156 18.0937 26.4375H25.125C25.125 24.4688 23.5312 22.9219 21.6094 22.9219Z" fill="black"/>
</svg>
