<svg width="50" height="50" viewBox="0 0 50 50" fill="none" xmlns="http://www.w3.org/2000/svg">
<path d="M20.8332 35.4167L10.4165 25L13.354 22.0417L20.8332 29.5208L36.6457 13.7083L39.5832 16.6667L20.8332 35.4167ZM24.9998 4.16667C22.264 4.16667 19.5549 4.70554 17.0273 5.75252C14.4996 6.79949 12.203 8.33406 10.2684 10.2686C6.36144 14.1756 4.1665 19.4747 4.1665 25C4.1665 30.5254 6.36144 35.8244 10.2684 39.7314C12.203 41.666 14.4996 43.2005 17.0273 44.2475C19.5549 45.2945 22.264 45.8333 24.9998 45.8333C30.5252 45.8333 35.8242 43.6384 39.7312 39.7314C43.6382 35.8244 45.8332 30.5254 45.8332 25C45.8332 22.2641 45.2943 19.5551 44.2473 17.0274C43.2004 14.4998 41.6658 12.2032 39.7312 10.2686C37.7967 8.33406 35.5 6.79949 32.9724 5.75252C30.4448 4.70554 27.7357 4.16667 24.9998 4.16667Z" fill="#0CCA57"/>
</svg>
