<svg width="30" height="30" viewBox="0 0 30 30" fill="none" xmlns="http://www.w3.org/2000/svg">
<path d="M27.3588 13.8585L22.5996 9.05819L22.9778 8.62734L29.2959 15L22.9778 21.3727L22.5996 20.9418L27.3588 16.1415L28.2036 15.2895H27.0038H9.89261V14.7105H27.0038H28.2036L27.3588 13.8585ZM4.69631 0.5H14.0889C15.2005 0.5 16.2673 0.945327 17.0546 1.73942C17.8421 2.53366 18.2852 3.61178 18.2852 4.73684V10.5526H17.7198V4.73684C17.7198 3.76809 17.3383 2.83815 16.6578 2.15184C15.9773 1.46538 15.0533 1.07895 14.0889 1.07895H4.69631C3.73195 1.07895 2.80796 1.46538 2.12738 2.15184C1.44694 2.83815 1.06544 3.76809 1.06544 4.73684V25.2632C1.06544 26.2319 1.44694 27.1618 2.12738 27.8482C2.80796 28.5346 3.73195 28.9211 4.69631 28.9211H14.0889C15.0533 28.9211 15.9773 28.5346 16.6578 27.8482C17.3383 27.1618 17.7198 26.2319 17.7198 25.2632V19.4474H18.2852V25.2632C18.2852 26.3882 17.8421 27.4663 17.0546 28.2606C16.2673 29.0547 15.2005 29.5 14.0889 29.5H4.69631C3.58477 29.5 2.51788 29.0547 1.73059 28.2606C0.943144 27.4663 0.5 26.3882 0.5 25.2632V4.73684C0.5 3.61178 0.943144 2.53366 1.73059 1.73942C2.51788 0.945327 3.58477 0.5 4.69631 0.5Z" fill="#010182" stroke="black"/>
</svg>
