<svg width="30" height="30" viewBox="0 0 30 30" fill="none" xmlns="http://www.w3.org/2000/svg">
<g clip-path="url(#clip0_117_115)">
<path d="M14.375 3.125H15.625V25.625H14.375V3.125Z" fill="#37474F"/>
<path d="M16.1356 20.4824L17.0194 21.3662L10.7444 27.6412L9.86063 26.7574L16.1356 20.4824Z" fill="#37474F"/>
<path d="M20.1619 26.7652L19.2781 27.649L13.0031 21.374L13.8869 20.4902L20.1619 26.7652Z" fill="#37474F"/>
<path d="M2.5 5H27.5V22.5H2.5V5Z" fill="#CFD8DC"/>
<path d="M19.9375 11.8125L16.25 15.5625L12.5 11.8125L7.4375 16.8125L8.8125 18.1875L12.5 14.4375L16.25 18.1875L21.3125 13.1875L19.9375 11.8125Z" fill="#C51162"/>
<path d="M22.5 15L18.125 10.625H22.5V15Z" fill="#C51162"/>
</g>
<defs>
<clipPath id="clip0_117_115">
<rect width="30" height="30" fill="white"/>
</clipPath>
</defs>
</svg>
